<svg width="80" height="30" viewBox="0 0 80 30" fill="none" xmlns="http://www.w3.org/2000/svg">
<path d="M80 27.9355V30H70.4514V27.9355H80Z" fill="#E94D5F"/>
<path d="M69.5687 23.0749C69.5687 25.5836 67.4824 27.5958 64.9415 27.5958C62.4005 27.5958 60.3143 25.5575 60.3143 23.0749C60.3143 20.5923 62.4005 18.554 64.9415 18.554C67.4824 18.554 69.5687 20.5662 69.5687 23.0749Z" fill="#E94D5F"/>
<path d="M55.6603 24.7996C58.4955 22.6307 60.3143 19.2857 60.3143 15.4965C60.3143 11.7073 58.4955 8.36236 55.6603 6.19337C53.6008 4.62543 51.0331 3.68466 48.2247 3.68466C41.5379 3.68466 36.1351 8.96341 36.1351 15.4965C36.1351 22.0296 41.5379 27.3084 48.2247 27.3084C51.0331 27.3084 53.6008 26.3676 55.6603 24.7996Z" fill="url(#paint0_linear_49_122)"/>
<path d="M24.1257 14.6864V0.0783997C20.7823 0.0783997 17.8669 1.80314 16.2354 4.39025C14.9515 3.91986 13.5339 3.65854 12.0896 3.65854C5.40288 3.65854 0 8.93729 0 15.4704C0 22.0035 5.40288 27.2822 12.0896 27.2822C14.898 27.2822 17.4657 26.3415 19.5252 24.7735C22.3604 22.6045 24.1792 19.2596 24.1792 15.4704C24.1525 15.2091 24.1525 14.9477 24.1257 14.6864Z" fill="url(#paint1_linear_49_122)"/>
<path d="M30.0635 9.17247C27.5226 9.17247 25.463 11.1847 25.463 13.6672V27.2822C30.5717 27.2822 34.7442 23.2317 34.7442 18.2143V13.7456C34.7175 11.2369 32.6312 9.17247 30.0635 9.17247Z" fill="url(#paint2_linear_49_122)"/>
<path d="M30.0903 9.14634C32.6458 9.14634 34.7175 7.12226 34.7175 4.62544C34.7175 2.12861 32.6458 0.10453 30.0903 0.10453C27.5347 0.10453 25.4631 2.12861 25.4631 4.62544C25.4631 7.12226 27.5347 9.14634 30.0903 9.14634Z" fill="url(#paint3_linear_49_122)"/>
<path d="M30.0903 9.22474C27.4958 9.22474 25.3561 7.16028 25.3561 4.5993C25.3561 2.03833 27.4958 0 30.0903 0C32.6847 0 34.8245 2.06446 34.8245 4.62544C34.8245 7.18641 32.7115 9.22474 30.0903 9.22474ZM30.0903 0.182927C27.5761 0.182927 25.5433 2.16899 25.5433 4.62544C25.5433 7.08188 27.5761 9.06794 30.0903 9.06794C32.6045 9.06794 34.6372 7.08188 34.6372 4.62544C34.6372 2.16899 32.6045 0.182927 30.0903 0.182927Z" fill="url(#paint4_linear_49_122)"/>
<defs>
<linearGradient id="paint0_linear_49_122" x1="36.1353" y1="15.4892" x2="60.3031" y2="15.4892" gradientUnits="userSpaceOnUse">
<stop stop-color="#56509A"/>
<stop offset="1" stop-color="#E94D5F"/>
</linearGradient>
<linearGradient id="paint1_linear_49_122" x1="-0.0177599" y1="13.6928" x2="24.15" y2="13.6928" gradientUnits="userSpaceOnUse">
<stop stop-color="#2EAAE1"/>
<stop offset="1" stop-color="#4A63A9"/>
</linearGradient>
<linearGradient id="paint2_linear_49_122" x1="25.4596" y1="18.2394" x2="34.7287" y2="18.2394" gradientUnits="userSpaceOnUse">
<stop stop-color="#4A63A9"/>
<stop offset="1" stop-color="#56509A"/>
</linearGradient>
<linearGradient id="paint3_linear_49_122" x1="25.4596" y1="4.61809" x2="34.7288" y2="4.61809" gradientUnits="userSpaceOnUse">
<stop stop-color="#4A63A9"/>
<stop offset="1" stop-color="#56509A"/>
</linearGradient>
<linearGradient id="paint4_linear_49_122" x1="25.3687" y1="4.61809" x2="34.8195" y2="4.61809" gradientUnits="userSpaceOnUse">
<stop stop-color="#4A63A9"/>
<stop offset="1" stop-color="#56509A"/>
</linearGradient>
</defs>
</svg>
